<svg viewBox="0 0 256 256" xmlns="http://www.w3.org/2000/svg">
  <path d="M 180 20 Q 220 20 220 60 Q 220 100 180 120 L 100 120 Q 60 120 60 80 Q 60 40 100 40 L 120 40 Q 140 40 140 60 Q 140 80 120 80 L 100 80 Q 90 80 90 90 L 100 90 Q 140 90 140 130 Q 140 170 100 190 Q 60 210 60 170 L 60 150 Q 60 130 80 130 L 100 130 Q 120 130 120 150 Q 120 170 100 170 L 80 170 Q 70 170 70 160" 
        fill="none" stroke="#1F2937" stroke-width="40" stroke-linecap="round" stroke-linejoin="round"/>
  
  <!-- S shape path -->
  <path d="M 210 30 Q 240 30 240 70 Q 240 100 210 120 M 210 130 Q 240 130 240 170 Q 240 210 210 230 Q 180 250 150 240"
        fill="none" stroke="#1F2937" stroke-width="50" stroke-linecap="round" stroke-linejoin="round"/>
</svg>
